<?xml version="1.0" encoding="UTF-8"?>
<svg width="700pt" height="700pt" version="1.1" viewBox="0 0 700 700" xmlns="http://www.w3.org/2000/svg">
 <g>
  <path d="m472.5 315h-245c-48.246 0-87.5 39.254-87.5 87.5v35c0 48.246 39.254 87.5 87.5 87.5h245c48.246 0 87.5-39.254 87.5-87.5v-35c0-48.246-39.254-87.5-87.5-87.5zm52.5 122.5c0 28.945-23.555 52.5-52.5 52.5h-245c-28.945 0-52.5-23.555-52.5-52.5v-35c0-28.945 23.555-52.5 52.5-52.5h245c28.945 0 52.5 23.555 52.5 52.5z"/>
  <path d="m350 280c67.531 0 122.5-54.949 122.5-122.5s-54.969-122.5-122.5-122.5-122.5 54.949-122.5 122.5 54.969 122.5 122.5 122.5zm0-210c48.246 0 87.5 39.254 87.5 87.5s-39.254 87.5-87.5 87.5-87.5-39.254-87.5-87.5 39.254-87.5 87.5-87.5z"/>
 </g>
</svg>
